<?xml version="1.0" encoding="UTF-8" standalone="no"?>
<!-- Created with Inkscape (http://www.inkscape.org/) -->

<svg
   version="1.1"
   id="svg1"
   width="10mm"
   height="10mm"
   viewBox="0 0 37.795276 37.795275"
   sodipodi:docname="trixi_logo_2.svg"
   inkscape:version="1.3.1 (9b9bdc1480, 2023-11-25, custom)"
   xmlns:inkscape="http://www.inkscape.org/namespaces/inkscape"
   xmlns:sodipodi="http://sodipodi.sourceforge.net/DTD/sodipodi-0.dtd"
   xmlns:xlink="http://www.w3.org/1999/xlink"
   xmlns="http://www.w3.org/2000/svg"
   xmlns:svg="http://www.w3.org/2000/svg">
  <defs
     id="defs1">
    <linearGradient
       id="swatch2"
       inkscape:swatch="solid">
      <stop
         style="stop-color:#000000;stop-opacity:1;"
         offset="0"
         id="stop2" />
    </linearGradient>
    <linearGradient
       inkscape:collect="always"
       xlink:href="#swatch2"
       id="linearGradient2"
       x1="55.247471"
       y1="192.63016"
       x2="346.25992"
       y2="192.63016"
       gradientUnits="userSpaceOnUse"
       gradientTransform="matrix(0.11689676,0,0,0.11928876,-4.9142118,-4.9163913)" />
  </defs>
  <sodipodi:namedview
     id="namedview1"
     pagecolor="#ffffff"
     bordercolor="#000000"
     borderopacity="0.25"
     inkscape:showpageshadow="2"
     inkscape:pageopacity="0.0"
     inkscape:pagecheckerboard="0"
     inkscape:deskcolor="#d1d1d1"
     inkscape:zoom="32"
     inkscape:cx="23.8125"
     inkscape:cy="10.4375"
     inkscape:window-width="1920"
     inkscape:window-height="1011"
     inkscape:window-x="0"
     inkscape:window-y="0"
     inkscape:window-maximized="1"
     inkscape:current-layer="g1"
     inkscape:lockguides="false"
     showguides="true"
     inkscape:document-units="mm" />
  <g
     inkscape:groupmode="layer"
     inkscape:label="OuterBoundary"
     id="g1"
     style="display:inline">
    <path
       style="display:inline;fill:#008080;stroke:url(#linearGradient2);stroke-width:0.0118087;stroke-linecap:round;stroke-linejoin:round;stroke-miterlimit:4;stroke-dasharray:none;paint-order:normal"
       d="M 9.1072961,26.78817 9.75698,28.356638 c 0.05347,0.419439 0.091156,1.869439 4.325379,1.824893 l 1.650851,1.316589 c -0.07973,0.672915 -0.872511,1.412259 -0.597546,2.018763 0.182958,0.403561 1.181798,0.14318 1.730679,0.0623 0.357776,-0.05272 0.721237,-0.846648 1.034278,-1.03447 0.629015,-0.273151 1.565293,-0.248508 1.987905,-0.865554 0.360269,-0.285508 0.967977,-0.129081 1.578176,0.06279 1.065128,0.334917 -0.275125,2.649708 -0.156877,2.899127 0.121902,0.132326 1.020217,0.193311 1.687451,0.09019 0.667235,-0.10312 1.238283,-1.835198 1.311421,-2.271651 0.446862,-2.66665 0.121315,-2.085443 -1.197428,-2.664385 -0.559886,-0.283602 -1.258465,-0.41033 -1.679659,-0.850806 -0.155302,-0.213765 1.290606,-1.217407 1.724379,-1.989986 0.433773,-0.772578 -0.03841,-1.84792 0.03157,-2.096764 0.189413,-0.673499 3.335187,-1.743655 3.335187,-1.743655 0.535477,-0.0031 1.560999,1.597389 3.069123,0.604689 0.779033,-0.512785 2.853827,-1.973459 3.338138,-2.037548 0.488916,-0.0647 1.855297,0.06979 2.491703,-0.405699 0.607388,-0.453808 -1.222145,-4.722533 -1.222145,-4.722533 -0.909266,-1.451612 -2.662234,-3.707868 -3.453224,-2.241783 -1.781874,3.723936 -3.977107,5.452049 -7.768985,5.590043 -3.378301,0.122943 -5.445578,1.13145 -5.691506,-1.972978 -0.008,-0.35947 0.08807,-0.64043 0.685423,-0.89004 0.58214,-0.165465 1.145379,1.143417 2.011268,1.738765 0.86589,0.595349 7.605012,-1.396052 5.436738,-2.432577 -1.699088,-0.623138 -3.07991,0.579082 -2.126631,-1.533672 0.854027,-1.892779 -5.467129,-1.527322 -0.23205,-8.4850696 C 24.912118,4.5128249 24.484686,5.597655 26.04841,5.7607648 27.468919,5.9089364 28.835524,5.544775 29.088782,4.429584 29.079082,4.0934427 26.706652,3.6726925 25.71967,3.2519552 24.892139,2.8991897 22.489652,1.3918441 22.393611,1.3427471 c 0,0 -4.255604,2.1684038 -4.682533,2.4461773 C 15.71838,5.0854369 13.10786,8.20412 12.621916,8.5175958 10.760308,9.4289187 9.8830199,7.6230658 9.1838927,7.5813158 8.4847564,7.5395653 7.8957407,7.4447307 7.3951241,8.2838037 7.0193825,8.9135683 7.2866403,9.9432555 7.5430093,10.444186 c 0.6062489,1.184566 1.6320304,1.548339 2.6935387,2.034978 -0.8598881,1.85438 -1.6607477,1.924382 -0.8865148,3.341688 0.8280528,1.359823 1.6132208,1.790311 3.1512868,2.060371 -0.584305,2.066616 -2.485169,3.166777 -1.936078,5.358425 -0.6699919,0.563297 -1.4097937,1.162936 -2.0099757,1.68989 -2.2800545,-0.159571 -6.4864292,-1.64289 -6.8891912,-0.849115 -0.5480682,1.080149 0.9948102,2.790053 2.0383807,2.828532 z"
       id="path1"
       sodipodi:nodetypes="ccccssccscssccsscsssccsccscscscscscssscscccscc" />
  </g>
</svg>
